<?xml version="1.0" encoding="UTF-8"?><svg xmlns="http://www.w3.org/2000/svg" viewBox="0 0 513.1 513.1"><defs><style>.d{fill:#f4b0af;}.e{fill:#317937;}</style></defs><g id="a"/><g id="b"><g id="c"><circle class="d" cx="256.55" cy="256.55" r="256.55"/><path class="e" d="M342.74,79.7c18.69-4.68,22.26-3.93,18.28,14.6-6.3,26.6-27.4,47.77-52.09,61.08,4.21-15.63,22.07-27.26,17.85-44.73-15.87,16.75-26.8,38.34-28.98,61.08,1.01,13.14,8.54,24.49,8.34,38.01-11.92-19.23-31.07-33.61-55.74-37.21-3.38-.67-.31-3.04,1.04-4.07,6.31-9.62,7.13-21.87,3.74-32.82,27.36-1.66,38.42-22.63,60.85-31.88-1.73,1.85-1.31,5.07-1.1,6.68,1.27-4.11,8.13-24.9,27.8-30.74Z"/><path class="e" d="M185.1,76.28c11.23,10.39-.4,30.96-8.85,43.05-18.18-20.11-45.32,11.92-48.69,29.33-3.52,12.07-3.81,24.6-4.08,36.99-.03,1.24,.04,2.66,1.15,3.41,7.85,2.22,15.53-5.56,17.99-11.99,4.56-11.92,.31-26.9,11.13-36.16-.61,29.01,7.69,63.18-17.49,85.01-2.26-19.02-26.37-24.15-25.2-5.99,4.33,12,19.05,17.15,31.43,17.29-35.68,16.72-68.32-25.46-104.4-15.11,12.27-19.44,20.27-40.66,26.37-62.06,4.51-15.84,.09-53.87,16.1-64.41,4.82,3.3,10.12,12.21,17.69,10.02"/><path class="e" d="M204.67,121.9c24.6-4.71,51.87,7.01,47.83,31.04-2.07,22.01-37.57,14.78-56.35,22.16-1.86-17.97,42.72-28.02,20.11-36.59-6.63-1.13-20.56,11.2-24.05,23.27-5.08,14.04-6.41,46,16.67,39.37,17.8-3.78,24.73-20.84,39.21-27.78-6.55,20.66-19.74,40.18-39.37,55.33-13.3,11.69-45,29.86-51.77,8.57-13.16-31.39,2.54-105.39,47.71-115.37Z"/><path class="e" d="M119.93,244.3c-9.26,26.92-20.7,54.35-10.19,83.47-1.76-38.63,13.57-50.09,52.31-46.34-15.21,12.38-40.66,26.44-30.04,45.98,14.18,27.06,35.18,52.48,59.54,73.31,8.72,8.95,8.43-7.72,15.21-12.38,13.34,37.65-59.99,59.84-81.61,36.22-16.05-17.94,45.69-21.25-.95-54.56,1.9,10.58-9.96,18.36-4.64,28.88-29.48-4.31-54.54-17.52-82.7-25.93,54.34-28.19,34.39-91.53,37.02-137.06,14.62,4.06,30.95,13.49,46.06,8.42Z"/><path class="e" d="M284.52,208.33c8.61,4.48,16.28,10.31,24.3,15.54,10.91,7.12,20.77,11.45,25.98,23.28,9.51,21.6-11.01,51.04-45.66,91.58-8.49,9.94-25.41,4.15-29.9-6.06-5.57,12.77,16.12,22.72,6.83,32.82-9.29,10.1-27.27,2.81-40.9,4.22,16.25-42.82,28.93-86.81,43.34-131.58,1.2-11.98-.83-22.71-3.61-34.07,3.25-4.84,15.44,2.65,19.61,4.26Zm10.14,27.7c-3.86,18.71-32.51,41.48-15.3,57.99,14.25-12.14,39.02-39.08,23.97-57.15-2.89-1.76-6.14-1.97-8.67-.84Z"/><path class="e" d="M383.57,177.45c-7.35,28.61-16.91,57.91-3.34,86.96-5.16-39.24,9.35-52.89,50.74-52.53-14.85,14.14-40.29,30.96-27.44,50.12,17.24,26.6,41.49,50.89,68.84,70.14,9.93,8.43,8.16-8.72,14.85-14.14,17.37,37.28-57.36,67.25-82.34,44.76-18.35-17.07,46-26.1-5.8-56.15,2.92,10.73-8.82,19.83-2.32,30.19-31.29-1.76-58.7-13.09-88.95-19.19,54.47-34,27.98-97.47,26.74-144.64,15.67,2.85,33.61,11.09,49.01,4.48Z"/><path class="e" d="M244.72,212.3c18.62-5.09,20.32-2.47,17.16,14.88-5.32,26.04-25.02,48.05-48.03,61.19,3.8-15.75,20.34-27.32,16.25-44.98-13.45,14.54-20.97,33.17-25.58,52.29-6.66,27.38,5.71,43.05-3.42,50.44-1.81,1.46-5.3,3.33-12.44,3.03-4.81,1.55-9.62,3.09-14.43,4.64-22.05-40.38-3.83-50.83-10.64-85.77,25.48-1.44,35.62-22.51,56.45-31.66-1.6,1.85-1.18,5.1-.97,6.73,1.15-4.14,7.36-25.05,25.65-30.78Z"/></g></g></svg>