<?xml version="1.0" encoding="UTF-8"?><svg xmlns="http://www.w3.org/2000/svg" viewBox="0 0 400.77 400.49"><defs><style>.d{fill:#eeece1;}</style></defs><g id="a"/><g id="b"><g id="c"><path class="d" d="M303.42,400.49H96.87c-1.69-.22-3.37-.45-5.06-.67-22.67-3.04-42.6-12.04-59.17-27.89C12.38,352.56,1.6,328.66,.28,300.7c-.54-11.41-.13-22.87-.13-34.31,0-48.9-.02-97.79,0-146.69,0-12.17-.49-24.36,2.06-36.42,4.11-19.38,12.75-36.38,26.4-50.74C43.04,17.37,60.43,7.28,80.91,2.72,85.99,1.59,91.17,.9,96.3,0,165.53,0,234.76,0,303.99,0c4.23,.61,8.5,1,12.67,1.88,49.26,10.31,83.49,51.71,84.03,101.67,.15,13.92,.02,27.84,.02,41.76,0,49.01-.08,98.02,.05,147.02,.04,15.04-1.9,29.69-7.87,43.52-13.97,32.37-38.1,53.11-72.36,61.75-5.59,1.41-11.4,1.95-17.11,2.89ZM201.03,34.34v-.04c-31.84,0-63.69,.04-95.53-.02-9.54-.02-18.84,1.31-27.55,5.22-26.83,12.05-41.86,32.69-43.25,62.21-.8,16.93-.17,33.93-.18,50.9-.02,48.05-.25,96.1,.03,144.15,.15,25.9,11.88,45.81,33.71,59.62,11.66,7.37,24.6,10.29,38.36,10.17,16.3-.15,32.6,.03,48.9,.03,14.87,0,29.74-.06,44.61-.06,14.3,0,28.6,.04,42.9,.05,14.49,0,28.98-.05,43.47,.01,11.26,.05,22.4-.2,33.29-3.89,25.25-8.56,44.79-33.03,46.5-59.62,.76-11.78,.46-23.62,.47-35.44,.03-25.64-.06-51.28-.06-76.92,0-25.74,.04-51.47,.09-77.21,.02-10.88-.29-21.64-3.86-32.15-9.24-27.18-35.6-46.78-64.36-46.97-32.51-.21-65.02-.05-97.54-.05Z"/><path class="d" d="M200.72,300.03c-55.09,.07-99.75-44.53-99.84-99.71-.09-54.66,44.87-99.54,99.77-99.59,54.64-.05,99.56,44.65,99.57,99.08,.02,55.65-44.16,100.15-99.51,100.22Zm.21-30.42c37.62,.29,70.02-31.7,68.94-71.24-.97-35.42-30.44-67.66-70.72-67.26-36.94,.36-68.04,32.08-67.84,69.64,.2,38.15,31.44,69.04,69.62,68.85Z"/><path class="d" d="M288.31,89.43c.04-12.61,10.18-22.93,22.56-22.93,12.95,0,23.4,10.37,23.33,23.16-.07,12.7-10.4,22.87-23.27,22.91-12.5,.04-22.65-10.34-22.61-23.13Z"/></g></g></svg>